<svg xmlns="http://www.w3.org/2000/svg" version="1.1" xmlns:xlink="http://www.w3.org/1999/xlink" xmlns:svgjs="http://svgjs.dev/svgjs" viewBox="0 0 8.283887959477717 5.9111803873247215"><g transform="matrix(1,0,0,1,0.5814788308130767,2.881401556511645)"><rect width="8.283887959477717" height="8.283887959477717" x="-0.5814788308130767" y="-4.067755342588143" fill="#b9625d"></rect><g><path d=" M 3.0999417114257817 0.51 Q 3.173441711425782 0.579 3.173441711425782 0.6809999999999999 Q 3.173441711425782 0.7589999999999999 3.130691711425782 0.82275 Q 3.0879417114257817 0.8865 3.012191711425782 0.9232499999999999 Q 2.9364417114257817 0.96 2.8434417114257817 0.96 Q 2.799941711425782 0.96 2.742941711425782 0.9554999999999999 Q 2.7234417114257816 0.954 2.693441711425782 0.9525 Q 2.663441711425782 0.951 2.625941711425782 0.951 L 2.517941711425782 0.9525 Q 2.4894417114257816 0.954 2.439941711425782 0.954 Q 2.435441711425782 0.954 2.435441711425782 0.945 Q 2.435441711425782 0.9359999999999999 2.439941711425782 0.9359999999999999 Q 2.487941711425782 0.9359999999999999 2.5119417114257816 0.92775 Q 2.5359417114257816 0.9195 2.545691711425782 0.8985 Q 2.555441711425782 0.8775 2.555441711425782 0.8325 L 2.555441711425782 0.1379999999999999 Q 2.555441711425782 0.09449999999999992 2.545691711425782 0.07274999999999998 Q 2.5359417114257816 0.050999999999999934 2.5126917114257816 0.042749999999999955 Q 2.4894417114257816 0.034499999999999975 2.4414417114257816 0.034499999999999975 Q 2.438441711425782 0.034499999999999975 2.438441711425782 0.025499999999999967 Q 2.438441711425782 0.01649999999999996 2.4414417114257816 0.01649999999999996 L 2.519441711425782 0.017999999999999905 Q 2.5854417114257817 0.020999999999999908 2.625941711425782 0.020999999999999908 Q 2.6679417114257817 0.020999999999999908 2.7144417114257817 0.01649999999999996 Q 2.730941711425782 0.014999999999999902 2.754191711425782 0.013499999999999956 Q 2.777441711425782 0.0119999999999999 2.8074417114257817 0.0119999999999999 Q 2.940941711425782 0.0119999999999999 3.012191711425782 0.06374999999999997 Q 3.083441711425782 0.11549999999999994 3.083441711425782 0.20699999999999996 Q 3.083441711425782 0.27749999999999997 3.036191711425782 0.33599999999999997 Q 2.988941711425782 0.39449999999999996 2.903441711425782 0.4275 Q 3.0264417114257816 0.44099999999999995 3.0999417114257817 0.51 M 2.716691711425782 0.06149999999999989 Q 2.6994417114257816 0.08099999999999996 2.6994417114257816 0.1409999999999999 L 2.6994417114257816 0.42599999999999993 L 2.7624417114257818 0.4275 Q 2.850941711425782 0.4275 2.895941711425782 0.3697499999999999 Q 2.940941711425782 0.31199999999999994 2.940941711425782 0.22049999999999992 Q 2.940941711425782 0.1349999999999999 2.9004417114257817 0.08849999999999991 Q 2.859941711425782 0.041999999999999926 2.781941711425782 0.041999999999999926 Q 2.733941711425782 0.041999999999999926 2.716691711425782 0.06149999999999989 M 3.021941711425782 0.717 Q 3.021941711425782 0.603 2.962691711425782 0.534 Q 2.903441711425782 0.46499999999999997 2.789441711425782 0.46499999999999997 Q 2.7354417114257816 0.46499999999999997 2.6994417114257816 0.46799999999999997 L 2.6994417114257816 0.8325 Q 2.6994417114257816 0.867 2.708441711425782 0.8865 Q 2.717441711425782 0.9059999999999999 2.742941711425782 0.91575 Q 2.768441711425782 0.9255 2.8194417114257817 0.9255 Q 3.021941711425782 0.9255 3.021941711425782 0.717 M 3.558953430175782 1.0859999999999999 Q 3.533453430175782 1.173 3.473453430175782 1.22925 Q 3.4134534301757817 1.2854999999999999 3.3039534301757816 1.329 L 3.3024534301757815 1.329 Q 3.297953430175782 1.329 3.2949534301757817 1.32225 Q 3.2919534301757816 1.3155 3.2949534301757817 1.3125 Q 3.3759534301757816 1.263 3.4074534301757815 1.16175 Q 3.438953430175782 1.0605 3.438953430175782 0.8939999999999999 L 3.438953430175782 0.1379999999999999 Q 3.438953430175782 0.09299999999999997 3.4299534301757815 0.07199999999999995 Q 3.4209534301757816 0.050999999999999934 3.3977034301757816 0.042749999999999955 Q 3.3744534301757816 0.034499999999999975 3.323453430175782 0.034499999999999975 Q 3.3204534301757818 0.034499999999999975 3.3204534301757818 0.025499999999999967 Q 3.3204534301757818 0.01649999999999996 3.323453430175782 0.01649999999999996 L 3.405953430175782 0.017999999999999905 Q 3.4719534301757817 0.020999999999999908 3.509453430175782 0.020999999999999908 Q 3.5499534301757816 0.020999999999999908 3.6099534301757816 0.017999999999999905 L 3.6804534301757816 0.01649999999999996 Q 3.6834534301757818 0.01649999999999996 3.6834534301757818 0.025499999999999967 Q 3.6834534301757818 0.034499999999999975 3.6804534301757816 0.034499999999999975 Q 3.638453430175782 0.034499999999999975 3.6182034301757815 0.04349999999999998 Q 3.5979534301757816 0.05249999999999999 3.591203430175782 0.07424999999999993 Q 3.5844534301757816 0.09599999999999997 3.5844534301757816 0.1409999999999999 L 3.5844534301757816 0.8534999999999999 Q 3.5844534301757816 0.999 3.558953430175782 1.0859999999999999 M 4.509229064941406 0.0119999999999999 Q 4.5819790649414065 0.02399999999999991 4.623979064941406 0.04499999999999993 Q 4.637479064941407 0.04949999999999999 4.641229064941407 0.05624999999999991 Q 4.644979064941406 0.06299999999999994 4.646479064941406 0.0794999999999999 L 4.664479064941407 0.27449999999999997 Q 4.664479064941407 0.2789999999999999 4.656979064941407 0.28049999999999997 Q 4.649479064941406 0.2819999999999999 4.647979064941406 0.2759999999999999 Q 4.6044790649414065 0.15899999999999992 4.516729064941407 0.09749999999999992 Q 4.428979064941407 0.03599999999999992 4.310479064941407 0.03599999999999992 Q 4.154479064941406 0.03599999999999992 4.0659790649414065 0.14549999999999996 Q 3.9774790649414067 0.2549999999999999 3.9774790649414067 0.4395 Q 3.9774790649414067 0.5774999999999999 4.026229064941407 0.693 Q 4.074979064941407 0.8085 4.1612290649414065 0.876 Q 4.247479064941406 0.9435 4.353979064941407 0.9435 Q 4.556479064941406 0.9435 4.661479064941407 0.6915 Q 4.662979064941407 0.6855 4.671229064941406 0.6869999999999999 Q 4.679479064941407 0.6884999999999999 4.679479064941407 0.693 L 4.656979064941407 0.885 Q 4.653979064941407 0.9029999999999999 4.650229064941406 0.90825 Q 4.646479064941406 0.9135 4.632979064941407 0.9195 Q 4.502479064941406 0.972 4.355479064941407 0.972 Q 4.172479064941407 0.972 4.050979064941407 0.89925 Q 3.9294790649414066 0.8265 3.8717290649414067 0.714 Q 3.8139790649414067 0.6014999999999999 3.8139790649414067 0.4799999999999999 Q 3.8139790649414067 0.33899999999999997 3.8912290649414065 0.22949999999999993 Q 3.968479064941407 0.12 4.095979064941407 0.05999999999999994 Q 4.223479064941406 -1.1102230246251565e-16 4.368979064941406 -1.1102230246251565e-16 Q 4.436479064941406 -1.1102230246251565e-16 4.509229064941406 0.0119999999999999" fill="#ffffff" fill-rule="nonzero"></path></g><g><path d=" M 0.76275 2.2315499999999995 Q 0.76275 2.2360499999999996 0.7605000000000001 2.2360499999999996 Q 0.7425 2.2360499999999996 0.7312500000000001 2.2352999999999996 L 0.6900000000000001 2.2345499999999996 L 0.648 2.2352999999999996 Q 0.6375000000000001 2.2360499999999996 0.61875 2.2360499999999996 Q 0.61725 2.2360499999999996 0.61725 2.2315499999999995 Q 0.61725 2.2270499999999998 0.61875 2.2270499999999998 Q 0.6465 2.2270499999999998 0.6555 2.216925 Q 0.6645 2.2067999999999994 0.6645 2.1752999999999996 L 0.6645 2.0597999999999996 Q 0.6645 2.0162999999999998 0.648 1.9956749999999996 Q 0.6315000000000001 1.9750499999999995 0.59775 1.9750499999999995 Q 0.5760000000000001 1.9750499999999995 0.553875 1.9859249999999997 Q 0.5317500000000001 1.9967999999999997 0.51375 2.0155499999999997 L 0.51375 2.1752999999999996 Q 0.51375 2.2067999999999994 0.522375 2.216925 Q 0.531 2.2270499999999998 0.55875 2.2270499999999998 Q 0.561 2.2270499999999998 0.561 2.2315499999999995 Q 0.561 2.2360499999999996 0.55875 2.2360499999999996 Q 0.5407500000000001 2.2360499999999996 0.5295 2.2352999999999996 L 0.48825 2.2345499999999996 L 0.44625000000000004 2.2352999999999996 Q 0.43575 2.2360499999999996 0.417 2.2360499999999996 Q 0.41550000000000004 2.2360499999999996 0.41550000000000004 2.2315499999999995 Q 0.41550000000000004 2.2270499999999998 0.417 2.2270499999999998 Q 0.44475000000000003 2.2270499999999998 0.45375 2.216925 Q 0.46275 2.2067999999999994 0.46275 2.1752999999999996 L 0.46275 1.7920499999999997 Q 0.46275 1.7815499999999997 0.45075 1.7815499999999997 L 0.3315 1.7815499999999997 Q 0.30375 1.7815499999999997 0.29175 1.7849249999999997 Q 0.27975 1.7882999999999996 0.27525 1.7980499999999997 Q 0.27075 1.8077999999999996 0.27075 1.8295499999999996 L 0.27075 2.1752999999999996 Q 0.27075 2.1985499999999996 0.275625 2.2090499999999995 Q 0.2805 2.2195499999999995 0.29475 2.2232999999999996 Q 0.309 2.2270499999999998 0.3405 2.2270499999999998 Q 0.342 2.2270499999999998 0.342 2.2315499999999995 Q 0.342 2.2360499999999996 0.3405 2.2360499999999996 Q 0.31425000000000003 2.2360499999999996 0.29925 2.2352999999999996 L 0.24 2.2345499999999996 L 0.18225 2.2352999999999996 Q 0.16725 2.2360499999999996 0.14025 2.2360499999999996 Q 0.138 2.2360499999999996 0.138 2.2315499999999995 Q 0.138 2.2270499999999998 0.14025 2.2270499999999998 Q 0.171 2.2270499999999998 0.18525 2.2232999999999996 Q 0.1995 2.2195499999999995 0.20475000000000002 2.2086749999999995 Q 0.21 2.1977999999999995 0.21 2.1752999999999996 L 0.21 1.8280499999999997 Q 0.21 1.8062999999999996 0.20550000000000002 1.7969249999999997 Q 0.201 1.7875499999999995 0.189 1.7845499999999996 Q 0.177 1.7815499999999997 0.14925 1.7815499999999997 Q 0.10275000000000001 1.7815499999999997 0.0765 1.8077999999999996 Q 0.05025 1.8340499999999995 0.0375 1.8910499999999997 Q 0.03675 1.8925499999999995 0.032625 1.8925499999999995 Q 0.0285 1.8925499999999995 0.0285 1.8910499999999997 Q 0.0315 1.8692999999999995 0.035250000000000004 1.8220499999999995 Q 0.039 1.7747999999999997 0.039 1.7507999999999997 Q 0.039 1.7470499999999998 0.043500000000000004 1.7470499999999998 Q 0.048 1.7470499999999998 0.048 1.7507999999999997 Q 0.048 1.7672999999999996 0.08925 1.7672999999999996 Q 0.132 1.7687999999999997 0.24 1.7687999999999997 Q 0.34950000000000003 1.7687999999999997 0.38475 1.7672999999999996 Q 0.4305 1.7657999999999996 0.46125 1.7459249999999997 Q 0.492 1.7260499999999996 0.5025000000000001 1.6922999999999995 Q 0.5025000000000001 1.6900499999999996 0.50775 1.6900499999999996 Q 0.51 1.6900499999999996 0.511875 1.6907999999999996 Q 0.51375 1.6915499999999997 0.51375 1.6930499999999995 L 0.51375 2.0012999999999996 Q 0.56775 1.9382999999999997 0.6285000000000001 1.9382999999999997 Q 0.6697500000000001 1.9382999999999997 0.692625 1.9626749999999997 Q 0.7155 1.9870499999999995 0.7155 2.03055 L 0.7155 2.1752999999999996 Q 0.7155 2.2067999999999994 0.724125 2.216925 Q 0.73275 2.2270499999999998 0.7605000000000001 2.2270499999999998 Q 0.76275 2.2270499999999998 0.76275 2.2315499999999995 M 1.0548724365234374 2.1917999999999997 Q 1.0571224365234375 2.1917999999999997 1.0589974365234376 2.194425 Q 1.0608724365234377 2.1970499999999995 1.0593724365234376 2.1992999999999996 Q 1.0331224365234375 2.2232999999999996 1.0057474365234376 2.2341749999999996 Q 0.9783724365234375 2.2450499999999995 0.9468724365234376 2.2450499999999995 Q 0.9018724365234375 2.2450499999999995 0.8692474365234375 2.2251749999999997 Q 0.8366224365234376 2.2053 0.8197474365234375 2.1722999999999995 Q 0.8028724365234375 2.1392999999999995 0.8028724365234375 2.10105 Q 0.8028724365234375 2.0567999999999995 0.8242474365234376 2.0196749999999994 Q 0.8456224365234375 1.9825499999999996 0.8834974365234376 1.9611749999999997 Q 0.9213724365234375 1.9397999999999995 0.9671224365234375 1.9397999999999995 Q 1.0091224365234375 1.9397999999999995 1.0323724365234375 1.9596749999999996 Q 1.0556224365234375 1.9795499999999997 1.0556224365234375 2.0140499999999997 Q 1.0556224365234375 2.0327999999999995 1.0473724365234376 2.0327999999999995 L 1.0113724365234376 2.0327999999999995 L 0.8636224365234375 2.0342999999999996 Q 0.8606224365234375 2.0492999999999997 0.8606224365234375 2.0710499999999996 Q 0.8606224365234375 2.13555 0.8917474365234376 2.1752999999999996 Q 0.9228724365234375 2.2150499999999997 0.9776224365234376 2.2150499999999997 Q 1.0211224365234375 2.2150499999999997 1.0541224365234376 2.1917999999999997 L 1.0548724365234374 2.1917999999999997 M 0.8936224365234375 1.9724249999999997 Q 0.8741224365234376 1.9900499999999997 0.8658724365234376 2.0222999999999995 L 0.9948724365234376 2.0192999999999994 Q 0.9941224365234376 1.9892999999999996 0.9798724365234376 1.9720499999999996 Q 0.9656224365234376 1.9547999999999996 0.9408724365234375 1.9547999999999996 Q 0.9131224365234376 1.9547999999999996 0.8936224365234375 1.9724249999999997 M 1.6151370849609377 2.0125499999999996 Q 1.6518870849609377 2.0477999999999996 1.6518870849609377 2.0987999999999998 Q 1.6518870849609377 2.1385499999999995 1.6312620849609376 2.170425 Q 1.6106370849609377 2.2022999999999997 1.5750120849609377 2.2206749999999995 Q 1.5393870849609377 2.2390499999999998 1.4951370849609376 2.2390499999999998 Q 1.4711370849609375 2.2390499999999998 1.4426370849609376 2.2367999999999997 Q 1.4321370849609376 2.2360499999999996 1.4178870849609377 2.2352999999999996 Q 1.4036370849609376 2.2345499999999996 1.3856370849609376 2.2345499999999996 L 1.3331370849609376 2.2352999999999996 Q 1.3188870849609375 2.2360499999999996 1.2948870849609375 2.2360499999999996 Q 1.2926370849609377 2.2360499999999996 1.2926370849609377 2.2315499999999995 Q 1.2926370849609377 2.2270499999999998 1.2948870849609375 2.2270499999999998 Q 1.3211370849609376 2.2270499999999998 1.3335120849609376 2.2229249999999996 Q 1.3458870849609377 2.2187999999999994 1.3511370849609377 2.2082999999999995 Q 1.3563870849609376 2.1977999999999995 1.3563870849609376 2.1752999999999996 L 1.3563870849609376 1.8280499999999997 Q 1.3563870849609376 1.8055499999999998 1.3515120849609377 1.7950499999999996 Q 1.3466370849609377 1.7845499999999996 1.3342620849609377 1.7804249999999997 Q 1.3218870849609377 1.7762999999999995 1.2956370849609375 1.7762999999999995 Q 1.2941370849609377 1.7762999999999995 1.2941370849609377 1.7717999999999996 Q 1.2941370849609377 1.7672999999999996 1.2956370849609375 1.7672999999999996 L 1.3331370849609376 1.7680499999999997 Q 1.3661370849609376 1.7695499999999997 1.3856370849609376 1.7695499999999997 Q 1.4058870849609377 1.7695499999999997 1.4298870849609377 1.7672999999999996 Q 1.4381370849609376 1.7665499999999996 1.4497620849609376 1.7657999999999996 Q 1.4613870849609376 1.7650499999999996 1.4748870849609377 1.7650499999999996 Q 1.5393870849609377 1.7650499999999996 1.5731370849609376 1.7916749999999997 Q 1.6068870849609376 1.8182999999999996 1.6068870849609376 1.8632999999999997 Q 1.6068870849609376 1.8992999999999998 1.5836370849609376 1.9281749999999995 Q 1.5603870849609376 1.9570499999999997 1.5183870849609375 1.9720499999999996 Q 1.5783870849609376 1.9772999999999996 1.6151370849609377 2.0125499999999996 M 1.4332620849609377 1.7815499999999997 Q 1.4238870849609375 1.7852999999999997 1.4197620849609376 1.7961749999999996 Q 1.4156370849609377 1.8070499999999996 1.4156370849609377 1.8295499999999996 L 1.4156370849609377 1.9720499999999996 L 1.4486370849609376 1.9727999999999997 Q 1.4981370849609377 1.9727999999999997 1.5228870849609377 1.9442999999999997 Q 1.5476370849609378 1.9157999999999997 1.5476370849609378 1.8692999999999995 Q 1.5476370849609378 1.8265499999999997 1.5262620849609376 1.8021749999999996 Q 1.5048870849609377 1.7777999999999996 1.4606370849609376 1.7777999999999996 Q 1.4426370849609376 1.7777999999999996 1.4332620849609377 1.7815499999999997 M 1.5622620849609377 2.1962999999999995 Q 1.5881370849609375 2.1685499999999998 1.5881370849609375 2.1167999999999996 Q 1.5881370849609375 2.0597999999999996 1.5566370849609377 2.0252999999999997 Q 1.5251370849609376 1.9907999999999997 1.4673870849609376 1.9900499999999997 Q 1.4471370849609375 1.9892999999999996 1.4156370849609377 1.9915499999999997 L 1.4156370849609377 2.1752999999999996 Q 1.4156370849609377 2.19405 1.4208870849609376 2.2041749999999998 Q 1.4261370849609376 2.2142999999999997 1.4403870849609377 2.2191749999999995 Q 1.4546370849609376 2.2240499999999996 1.4831370849609375 2.2240499999999996 Q 1.5363870849609376 2.2240499999999996 1.5622620849609377 2.1962999999999995 M 1.969517578125 2.1917999999999997 Q 1.9717675781250001 2.1917999999999997 1.9736425781250002 2.194425 Q 1.9755175781250003 2.1970499999999995 1.9740175781250002 2.1992999999999996 Q 1.9477675781250001 2.2232999999999996 1.9203925781250002 2.2341749999999996 Q 1.8930175781250003 2.2450499999999995 1.8615175781250002 2.2450499999999995 Q 1.8165175781250003 2.2450499999999995 1.7838925781250001 2.2251749999999997 Q 1.7512675781250002 2.2053 1.7343925781250003 2.1722999999999995 Q 1.7175175781250003 2.1392999999999995 1.7175175781250003 2.10105 Q 1.7175175781250003 2.0567999999999995 1.7388925781250002 2.0196749999999994 Q 1.7602675781250001 1.9825499999999996 1.7981425781250002 1.9611749999999997 Q 1.836017578125 1.9397999999999995 1.8817675781250003 1.9397999999999995 Q 1.923767578125 1.9397999999999995 1.947017578125 1.9596749999999996 Q 1.970267578125 1.9795499999999997 1.970267578125 2.0140499999999997 Q 1.970267578125 2.0327999999999995 1.9620175781250002 2.0327999999999995 L 1.9260175781250002 2.0327999999999995 L 1.7782675781250001 2.0342999999999996 Q 1.7752675781250002 2.0492999999999997 1.7752675781250002 2.0710499999999996 Q 1.7752675781250002 2.13555 1.806392578125 2.1752999999999996 Q 1.8375175781250002 2.2150499999999997 1.8922675781250002 2.2150499999999997 Q 1.935767578125 2.2150499999999997 1.9687675781250003 2.1917999999999997 L 1.969517578125 2.1917999999999997 M 1.8082675781250002 1.9724249999999997 Q 1.788767578125 1.9900499999999997 1.7805175781250002 2.0222999999999995 L 1.9095175781250002 2.0192999999999994 Q 1.9087675781250002 1.9892999999999996 1.894517578125 1.9720499999999996 Q 1.8802675781250002 1.9547999999999996 1.8555175781250002 1.9547999999999996 Q 1.8277675781250002 1.9547999999999996 1.8082675781250002 1.9724249999999997 M 2.245150634765625 1.9499249999999997 Q 2.2601506347656253 1.9600499999999996 2.2601506347656253 1.9742999999999997 Q 2.2601506347656253 1.9855499999999997 2.252650634765625 1.9934249999999996 Q 2.245150634765625 2.0012999999999996 2.232400634765625 2.0012999999999996 Q 2.2249006347656253 2.0012999999999996 2.219650634765625 1.9986749999999995 Q 2.2144006347656253 1.9960499999999997 2.210650634765625 1.9926749999999998 Q 2.206900634765625 1.9892999999999996 2.2054006347656254 1.9885499999999996 Q 2.199400634765625 1.9825499999999996 2.1937756347656254 1.9791749999999997 Q 2.188150634765625 1.9757999999999996 2.1799006347656253 1.9757999999999996 Q 2.1709006347656254 1.9757999999999996 2.160400634765625 1.9829249999999996 Q 2.149900634765625 1.9900499999999997 2.128900634765625 2.0140499999999997 L 2.128900634765625 2.1752999999999996 Q 2.128900634765625 2.1970499999999995 2.1345256347656254 2.2079249999999995 Q 2.140150634765625 2.2187999999999994 2.1551506347656253 2.2229249999999996 Q 2.1701506347656254 2.2270499999999998 2.2001506347656252 2.2270499999999998 Q 2.2024006347656253 2.2270499999999998 2.2024006347656253 2.2315499999999995 Q 2.2024006347656253 2.2360499999999996 2.2001506347656252 2.2360499999999996 Q 2.175400634765625 2.2360499999999996 2.160400634765625 2.2352999999999996 L 2.103400634765625 2.2345499999999996 L 2.0614006347656253 2.2352999999999996 Q 2.0509006347656253 2.2360499999999996 2.032900634765625 2.2360499999999996 Q 2.030650634765625 2.2360499999999996 2.030650634765625 2.2315499999999995 Q 2.030650634765625 2.2270499999999998 2.032900634765625 2.2270499999999998 Q 2.0599006347656252 2.2270499999999998 2.068525634765625 2.216925 Q 2.077150634765625 2.2067999999999994 2.077150634765625 2.1752999999999996 L 2.077150634765625 2.02905 Q 2.077150634765625 2.0042999999999997 2.0715256347656252 1.9934249999999996 Q 2.065900634765625 1.9825499999999996 2.0524006347656254 1.9825499999999996 Q 2.0381506347656253 1.9825499999999996 2.0126506347656252 1.9930499999999998 L 2.011150634765625 1.9930499999999998 Q 2.008900634765625 1.9930499999999998 2.007775634765625 1.9892999999999996 Q 2.006650634765625 1.9855499999999997 2.008900634765625 1.9847999999999997 L 2.101900634765625 1.9405499999999996 Q 2.103400634765625 1.9397999999999995 2.1064006347656252 1.9397999999999995 Q 2.113900634765625 1.9397999999999995 2.1210256347656253 1.9562999999999997 Q 2.128150634765625 1.9727999999999997 2.128900634765625 1.9997999999999996 Q 2.159650634765625 1.9652999999999996 2.1780256347656253 1.9525499999999996 Q 2.196400634765625 1.9397999999999995 2.2129006347656253 1.9397999999999995 Q 2.230150634765625 1.9397999999999995 2.245150634765625 1.9499249999999997 M 2.5477716064453126 2.1917999999999997 Q 2.5500216064453127 2.1917999999999997 2.551896606445313 2.194425 Q 2.553771606445313 2.1970499999999995 2.552271606445313 2.1992999999999996 Q 2.5260216064453127 2.2232999999999996 2.4986466064453126 2.2341749999999996 Q 2.471271606445313 2.2450499999999995 2.439771606445313 2.2450499999999995 Q 2.3947716064453126 2.2450499999999995 2.3621466064453127 2.2251749999999997 Q 2.329521606445313 2.2053 2.3126466064453126 2.1722999999999995 Q 2.295771606445313 2.1392999999999995 2.295771606445313 2.10105 Q 2.295771606445313 2.0567999999999995 2.317146606445313 2.0196749999999994 Q 2.3385216064453127 1.9825499999999996 2.376396606445313 1.9611749999999997 Q 2.414271606445313 1.9397999999999995 2.460021606445313 1.9397999999999995 Q 2.5020216064453127 1.9397999999999995 2.5252716064453127 1.9596749999999996 Q 2.5485216064453127 1.9795499999999997 2.5485216064453127 2.0140499999999997 Q 2.5485216064453127 2.0327999999999995 2.540271606445313 2.0327999999999995 L 2.5042716064453128 2.0327999999999995 L 2.356521606445313 2.0342999999999996 Q 2.353521606445313 2.0492999999999997 2.353521606445313 2.0710499999999996 Q 2.353521606445313 2.13555 2.3846466064453127 2.1752999999999996 Q 2.415771606445313 2.2150499999999997 2.470521606445313 2.2150499999999997 Q 2.5140216064453127 2.2150499999999997 2.5470216064453126 2.1917999999999997 L 2.5477716064453126 2.1917999999999997 M 2.3865216064453127 1.9724249999999997 Q 2.367021606445313 1.9900499999999997 2.3587716064453126 2.0222999999999995 L 2.4877716064453126 2.0192999999999994 Q 2.4870216064453126 1.9892999999999996 2.472771606445313 1.9720499999999996 Q 2.458521606445313 1.9547999999999996 2.4337716064453128 1.9547999999999996 Q 2.4060216064453126 1.9547999999999996 2.3865216064453127 1.9724249999999997 M 2.937418579101563 2.1902999999999997 Q 2.939668579101563 2.1902999999999997 2.940793579101563 2.19405 Q 2.941918579101563 2.1977999999999995 2.939668579101563 2.1985499999999996 L 2.847418579101563 2.2435499999999995 Q 2.845918579101563 2.2442999999999995 2.843668579101563 2.2442999999999995 Q 2.837668579101563 2.2442999999999995 2.8312935791015628 2.2278 Q 2.824918579101563 2.2112999999999996 2.823418579101563 2.1857999999999995 Q 2.797168579101563 2.2127999999999997 2.7701685791015627 2.22855 Q 2.743168579101563 2.2442999999999995 2.7101685791015626 2.2442999999999995 Q 2.6636685791015626 2.2442999999999995 2.6321685791015628 2.2101749999999996 Q 2.600668579101563 2.1760499999999996 2.600668579101563 2.1145499999999995 Q 2.600668579101563 2.0605499999999997 2.625793579101563 2.0200499999999995 Q 2.6509185791015626 1.9795499999999997 2.6902935791015627 1.9581749999999998 Q 2.729668579101563 1.9367999999999996 2.7709185791015627 1.9367999999999996 Q 2.810668579101563 1.9367999999999996 2.843668579101563 1.9585499999999996 Q 2.858668579101563 1.9510499999999995 2.866918579101563 1.9390499999999997 Q 2.867668579101563 1.9382999999999997 2.869168579101563 1.9382999999999997 Q 2.870668579101563 1.9382999999999997 2.872543579101563 1.9394249999999995 Q 2.8744185791015626 1.9405499999999996 2.8744185791015626 1.9412999999999996 L 2.8744185791015626 2.1557999999999997 Q 2.8744185791015626 2.1797999999999997 2.880043579101563 2.1902999999999997 Q 2.885668579101563 2.2007999999999996 2.8991685791015627 2.2007999999999996 Q 2.908918579101563 2.2007999999999996 2.9359185791015627 2.1910499999999997 L 2.937418579101563 2.1902999999999997 M 2.823418579101563 2.1730499999999995 L 2.823418579101563 2.01705 Q 2.823418579101563 1.9892999999999996 2.802418579101563 1.9705499999999996 Q 2.7814185791015626 1.9517999999999995 2.752168579101563 1.9517999999999995 Q 2.7101685791015626 1.9517999999999995 2.684668579101563 1.9907999999999997 Q 2.659168579101563 2.0298 2.659168579101563 2.0912999999999995 Q 2.659168579101563 2.14755 2.680543579101563 2.180925 Q 2.7019185791015627 2.2142999999999997 2.739418579101563 2.2142999999999997 Q 2.779168579101563 2.2142999999999997 2.823418579101563 2.1730499999999995 M 3.320286254882813 2.2315499999999995 Q 3.320286254882813 2.2360499999999996 3.318036254882813 2.2360499999999996 Q 3.300036254882813 2.2360499999999996 3.2887862548828126 2.2352999999999996 L 3.247536254882813 2.2345499999999996 L 3.206286254882813 2.2352999999999996 Q 3.1950362548828126 2.2360499999999996 3.177036254882813 2.2360499999999996 Q 3.1747862548828127 2.2360499999999996 3.1747862548828127 2.2315499999999995 Q 3.1747862548828127 2.2270499999999998 3.177036254882813 2.2270499999999998 Q 3.204036254882813 2.2270499999999998 3.212661254882813 2.216925 Q 3.2212862548828127 2.2067999999999994 3.2212862548828127 2.1752999999999996 L 3.2212862548828127 2.0582999999999996 Q 3.2212862548828127 2.0147999999999997 3.205536254882813 1.9945499999999996 Q 3.189786254882813 1.9742999999999997 3.155286254882813 1.9742999999999997 Q 3.134286254882813 1.9742999999999997 3.111786254882813 1.9847999999999997 Q 3.089286254882813 1.9952999999999996 3.071286254882813 2.0140499999999997 L 3.071286254882813 2.1752999999999996 Q 3.071286254882813 2.2067999999999994 3.0799112548828127 2.216925 Q 3.088536254882813 2.2270499999999998 3.1162862548828127 2.2270499999999998 Q 3.118536254882813 2.2270499999999998 3.118536254882813 2.2315499999999995 Q 3.118536254882813 2.2360499999999996 3.1162862548828127 2.2360499999999996 Q 3.098286254882813 2.2360499999999996 3.087036254882813 2.2352999999999996 L 3.0457862548828127 2.2345499999999996 L 3.003786254882813 2.2352999999999996 Q 2.993286254882813 2.2360499999999996 2.9752862548828127 2.2360499999999996 Q 2.9730362548828126 2.2360499999999996 2.9730362548828126 2.2315499999999995 Q 2.9730362548828126 2.2270499999999998 2.9752862548828127 2.2270499999999998 Q 3.002286254882813 2.2270499999999998 3.0109112548828127 2.216925 Q 3.0195362548828126 2.2067999999999994 3.0195362548828126 2.1752999999999996 L 3.0195362548828126 2.02905 Q 3.0195362548828126 2.0042999999999997 3.013911254882813 1.9934249999999996 Q 3.0082862548828126 1.9825499999999996 2.994786254882813 1.9825499999999996 Q 2.980536254882813 1.9825499999999996 2.955036254882813 1.9930499999999998 L 2.953536254882813 1.9930499999999998 Q 2.9512862548828127 1.9930499999999998 2.9501612548828127 1.9892999999999996 Q 2.9490362548828126 1.9855499999999997 2.9512862548828127 1.9847999999999997 L 3.0442862548828127 1.9405499999999996 Q 3.0457862548828127 1.9397999999999995 3.048786254882813 1.9397999999999995 Q 3.0562862548828127 1.9397999999999995 3.063411254882813 1.9566749999999997 Q 3.070536254882813 1.9735499999999997 3.071286254882813 2.0005499999999996 Q 3.1260362548828127 1.9367999999999996 3.1860362548828127 1.9367999999999996 Q 3.227286254882813 1.9367999999999996 3.250161254882813 1.9611749999999997 Q 3.273036254882813 1.9855499999999997 3.273036254882813 2.02905 L 3.273036254882813 2.1752999999999996 Q 3.273036254882813 2.2067999999999994 3.281661254882813 2.216925 Q 3.2902862548828127 2.2270499999999998 3.318036254882813 2.2270499999999998 Q 3.320286254882813 2.2270499999999998 3.320286254882813 2.2315499999999995 M 3.580932495117188 1.8467999999999996 Q 3.570807495117188 1.8370499999999996 3.570807495117188 1.8197999999999996 Q 3.570807495117188 1.8032999999999997 3.580932495117188 1.7939249999999998 Q 3.591057495117188 1.7845499999999996 3.608307495117188 1.7845499999999996 Q 3.624807495117188 1.7845499999999996 3.6341824951171877 1.7939249999999998 Q 3.643557495117188 1.8032999999999997 3.643557495117188 1.8197999999999996 Q 3.643557495117188 1.8370499999999996 3.6341824951171877 1.8467999999999996 Q 3.624807495117188 1.8565499999999997 3.608307495117188 1.8565499999999997 Q 3.591057495117188 1.8565499999999997 3.580932495117188 1.8467999999999996 M 3.639807495117188 1.9772999999999996 Q 3.639057495117188 2.0020499999999997 3.639057495117188 2.0357999999999996 L 3.639057495117188 2.2720499999999997 Q 3.639057495117188 2.32305 3.628557495117188 2.3556749999999997 Q 3.618057495117188 2.3882999999999996 3.593307495117188 2.4100499999999996 Q 3.568557495117188 2.4317999999999995 3.525057495117188 2.4475499999999997 Q 3.523557495117188 2.4482999999999997 3.521682495117188 2.4441749999999995 Q 3.519807495117188 2.44005 3.521307495117188 2.4393 Q 3.558057495117188 2.4235499999999996 3.573057495117188 2.3890499999999997 Q 3.5880574951171877 2.3545499999999997 3.5880574951171877 2.2892999999999994 L 3.5880574951171877 2.0372999999999997 Q 3.5880574951171877 2.0102999999999995 3.582807495117188 1.9986749999999995 Q 3.577557495117188 1.9870499999999995 3.5648074951171878 1.9870499999999995 Q 3.5528074951171877 1.9870499999999995 3.532557495117188 1.9967999999999997 L 3.531807495117188 1.9967999999999997 Q 3.5288074951171877 1.9967999999999997 3.526932495117188 1.9926749999999998 Q 3.525057495117188 1.9885499999999996 3.528057495117188 1.9877999999999996 L 3.630807495117188 1.9405499999999996 L 3.633057495117188 1.9397999999999995 Q 3.636057495117188 1.9397999999999995 3.638307495117188 1.9420499999999996 Q 3.640557495117188 1.9442999999999997 3.640557495117188 1.9472999999999996 Q 3.640557495117188 1.9525499999999996 3.639807495117188 1.9772999999999996 M 3.8029116210937506 2.2244249999999997 Q 3.7691616210937506 2.2030499999999997 3.7507866210937504 2.1666749999999997 Q 3.7324116210937506 2.1302999999999996 3.7324116210937506 2.08755 Q 3.7324116210937506 2.0387999999999997 3.7564116210937506 2.0046749999999998 Q 3.7804116210937506 1.9705499999999996 3.8179116210937503 1.9536749999999996 Q 3.8554116210937504 1.9367999999999996 3.8944116210937505 1.9367999999999996 Q 3.9386616210937504 1.9367999999999996 3.9724116210937503 1.9585499999999996 Q 4.00616162109375 1.9802999999999997 4.02416162109375 2.0159249999999997 Q 4.042161621093751 2.0515499999999998 4.042161621093751 2.0912999999999995 Q 4.042161621093751 2.1370499999999995 4.020036621093751 2.1722999999999995 Q 3.9979116210937504 2.2075499999999995 3.9611616210937504 2.2266749999999997 Q 3.9244116210937503 2.2457999999999996 3.8809116210937504 2.2457999999999996 Q 3.8366616210937505 2.2457999999999996 3.8029116210937506 2.2244249999999997 M 3.9604116210937503 2.2022999999999997 Q 3.9806616210937507 2.1730499999999995 3.9806616210937507 2.1145499999999995 Q 3.9806616210937507 2.0657999999999994 3.9660366210937505 2.028675 Q 3.9514116210937504 1.9915499999999997 3.9259116210937504 1.9716749999999996 Q 3.9004116210937503 1.9517999999999995 3.8689116210937504 1.9517999999999995 Q 3.8321616210937504 1.9517999999999995 3.8122866210937505 1.9799249999999997 Q 3.7924116210937506 2.0080499999999994 3.7924116210937506 2.0627999999999997 Q 3.7924116210937506 2.1100499999999998 3.8066616210937503 2.1486749999999994 Q 3.8209116210937504 2.1872999999999996 3.8460366210937504 2.2094249999999995 Q 3.8711616210937505 2.2315499999999995 3.9026616210937504 2.2315499999999995 Q 3.9401616210937505 2.2315499999999995 3.9604116210937503 2.2022999999999997 M 4.436282592773438 2.1910499999999997 Q 4.439282592773438 2.1910499999999997 4.440782592773438 2.194425 Q 4.442282592773438 2.1977999999999995 4.440032592773438 2.1992999999999996 L 4.347032592773438 2.2435499999999995 Q 4.345532592773438 2.2442999999999995 4.343282592773438 2.2442999999999995 Q 4.336532592773438 2.2442999999999995 4.329782592773438 2.2266749999999997 Q 4.323032592773438 2.2090499999999995 4.323032592773438 2.1805499999999998 Q 4.267532592773438 2.2427999999999995 4.207532592773438 2.2427999999999995 Q 4.169282592773438 2.2427999999999995 4.147157592773438 2.218425 Q 4.125032592773438 2.19405 4.125032592773438 2.1505499999999995 L 4.125032592773438 2.0372999999999997 Q 4.125032592773438 2.0087999999999995 4.119782592773438 1.9964249999999997 Q 4.114532592773438 1.9840499999999996 4.102532592773438 1.9840499999999996 Q 4.092032592773438 1.9840499999999996 4.079282592773438 1.9900499999999997 L 4.077782592773438 1.9900499999999997 Q 4.075532592773438 1.9900499999999997 4.074407592773438 1.9862999999999997 Q 4.073282592773438 1.9825499999999996 4.075532592773438 1.9817999999999996 L 4.164032592773438 1.9405499999999996 L 4.167032592773438 1.9397999999999995 Q 4.170032592773438 1.9397999999999995 4.173032592773438 1.9420499999999996 Q 4.176032592773438 1.9442999999999997 4.176032592773438 1.9472999999999996 L 4.176032592773438 2.1220499999999998 Q 4.176032592773438 2.2067999999999994 4.239032592773438 2.2067999999999994 Q 4.260032592773438 2.2067999999999994 4.282532592773438 2.1962999999999995 Q 4.305032592773438 2.1857999999999995 4.323032592773438 2.1670499999999997 L 4.323032592773438 2.0372999999999997 Q 4.323032592773438 2.0087999999999995 4.317782592773438 1.9964249999999997 Q 4.312532592773438 1.9840499999999996 4.300532592773438 1.9840499999999996 Q 4.290782592773438 1.9840499999999996 4.276532592773438 1.9900499999999997 L 4.275032592773438 1.9900499999999997 Q 4.272782592773438 1.9900499999999997 4.272032592773438 1.9862999999999997 Q 4.271282592773438 1.9825499999999996 4.273532592773438 1.9817999999999996 L 4.3620325927734385 1.9405499999999996 L 4.365032592773438 1.9397999999999995 Q 4.368032592773438 1.9397999999999995 4.371032592773438 1.9420499999999996 Q 4.374032592773438 1.9442999999999997 4.374032592773438 1.9472999999999996 L 4.374032592773438 2.1535499999999996 Q 4.374032592773438 2.1790499999999997 4.379657592773438 2.1902999999999997 Q 4.385282592773438 2.2015499999999997 4.398782592773438 2.2015499999999997 Q 4.410782592773438 2.2015499999999997 4.435532592773438 2.1910499999999997 L 4.436282592773438 2.1910499999999997 M 4.687164550781251 1.9499249999999997 Q 4.702164550781251 1.9600499999999996 4.702164550781251 1.9742999999999997 Q 4.702164550781251 1.9855499999999997 4.69466455078125 1.9934249999999996 Q 4.687164550781251 2.0012999999999996 4.6744145507812505 2.0012999999999996 Q 4.66691455078125 2.0012999999999996 4.661664550781251 1.9986749999999995 Q 4.656414550781251 1.9960499999999997 4.6526645507812505 1.9926749999999998 Q 4.64891455078125 1.9892999999999996 4.64741455078125 1.9885499999999996 Q 4.641414550781251 1.9825499999999996 4.635789550781251 1.9791749999999997 Q 4.6301645507812506 1.9757999999999996 4.62191455078125 1.9757999999999996 Q 4.612914550781251 1.9757999999999996 4.60241455078125 1.9829249999999996 Q 4.591914550781251 1.9900499999999997 4.570914550781251 2.0140499999999997 L 4.570914550781251 2.1752999999999996 Q 4.570914550781251 2.1970499999999995 4.57653955078125 2.2079249999999995 Q 4.5821645507812505 2.2187999999999994 4.59716455078125 2.2229249999999996 Q 4.612164550781251 2.2270499999999998 4.642164550781251 2.2270499999999998 Q 4.64441455078125 2.2270499999999998 4.64441455078125 2.2315499999999995 Q 4.64441455078125 2.2360499999999996 4.642164550781251 2.2360499999999996 Q 4.617414550781251 2.2360499999999996 4.60241455078125 2.2352999999999996 L 4.545414550781251 2.2345499999999996 L 4.50341455078125 2.2352999999999996 Q 4.492914550781251 2.2360499999999996 4.474914550781251 2.2360499999999996 Q 4.472664550781251 2.2360499999999996 4.472664550781251 2.2315499999999995 Q 4.472664550781251 2.2270499999999998 4.474914550781251 2.2270499999999998 Q 4.50191455078125 2.2270499999999998 4.5105395507812505 2.216925 Q 4.519164550781251 2.2067999999999994 4.519164550781251 2.1752999999999996 L 4.519164550781251 2.02905 Q 4.519164550781251 2.0042999999999997 4.513539550781251 1.9934249999999996 Q 4.50791455078125 1.9825499999999996 4.494414550781251 1.9825499999999996 Q 4.48016455078125 1.9825499999999996 4.45466455078125 1.9930499999999998 L 4.453164550781251 1.9930499999999998 Q 4.450914550781251 1.9930499999999998 4.449789550781251 1.9892999999999996 Q 4.448664550781251 1.9855499999999997 4.450914550781251 1.9847999999999997 L 4.543914550781251 1.9405499999999996 Q 4.545414550781251 1.9397999999999995 4.54841455078125 1.9397999999999995 Q 4.55591455078125 1.9397999999999995 4.563039550781251 1.9562999999999997 Q 4.570164550781251 1.9727999999999997 4.570914550781251 1.9997999999999996 Q 4.60166455078125 1.9652999999999996 4.62003955078125 1.9525499999999996 Q 4.638414550781251 1.9397999999999995 4.654914550781251 1.9397999999999995 Q 4.67216455078125 1.9397999999999995 4.687164550781251 1.9499249999999997 M 5.097803466796876 2.2315499999999995 Q 5.097803466796876 2.2360499999999996 5.095553466796876 2.2360499999999996 Q 5.077553466796876 2.2360499999999996 5.066303466796875 2.2352999999999996 L 5.025053466796876 2.2345499999999996 L 4.983803466796876 2.2352999999999996 Q 4.972553466796875 2.2360499999999996 4.954553466796876 2.2360499999999996 Q 4.9523034667968755 2.2360499999999996 4.9523034667968755 2.2315499999999995 Q 4.9523034667968755 2.2270499999999998 4.954553466796876 2.2270499999999998 Q 4.981553466796876 2.2270499999999998 4.990178466796875 2.216925 Q 4.9988034667968755 2.2067999999999994 4.9988034667968755 2.1752999999999996 L 4.9988034667968755 2.0582999999999996 Q 4.9988034667968755 2.0147999999999997 4.983053466796876 1.9945499999999996 Q 4.967303466796875 1.9742999999999997 4.932803466796876 1.9742999999999997 Q 4.911803466796876 1.9742999999999997 4.889303466796876 1.9847999999999997 Q 4.866803466796876 1.9952999999999996 4.848803466796876 2.0140499999999997 L 4.848803466796876 2.1752999999999996 Q 4.848803466796876 2.2067999999999994 4.8574284667968755 2.216925 Q 4.866053466796876 2.2270499999999998 4.893803466796876 2.2270499999999998 Q 4.896053466796876 2.2270499999999998 4.896053466796876 2.2315499999999995 Q 4.896053466796876 2.2360499999999996 4.893803466796876 2.2360499999999996 Q 4.875803466796875 2.2360499999999996 4.864553466796876 2.2352999999999996 L 4.823303466796876 2.2345499999999996 L 4.781303466796875 2.2352999999999996 Q 4.770803466796876 2.2360499999999996 4.752803466796876 2.2360499999999996 Q 4.750553466796876 2.2360499999999996 4.750553466796876 2.2315499999999995 Q 4.750553466796876 2.2270499999999998 4.752803466796876 2.2270499999999998 Q 4.779803466796875 2.2270499999999998 4.7884284667968755 2.216925 Q 4.797053466796876 2.2067999999999994 4.797053466796876 2.1752999999999996 L 4.797053466796876 2.02905 Q 4.797053466796876 2.0042999999999997 4.791428466796876 1.9934249999999996 Q 4.785803466796875 1.9825499999999996 4.772303466796876 1.9825499999999996 Q 4.758053466796875 1.9825499999999996 4.732553466796875 1.9930499999999998 L 4.731053466796876 1.9930499999999998 Q 4.728803466796876 1.9930499999999998 4.727678466796876 1.9892999999999996 Q 4.726553466796876 1.9855499999999997 4.728803466796876 1.9847999999999997 L 4.821803466796876 1.9405499999999996 Q 4.823303466796876 1.9397999999999995 4.826303466796875 1.9397999999999995 Q 4.8338034667968754 1.9397999999999995 4.840928466796876 1.9566749999999997 Q 4.848053466796876 1.9735499999999997 4.848803466796876 2.0005499999999996 Q 4.903553466796875 1.9367999999999996 4.963553466796876 1.9367999999999996 Q 5.004803466796876 1.9367999999999996 5.027678466796876 1.9611749999999997 Q 5.050553466796876 1.9855499999999997 5.050553466796876 2.02905 L 5.050553466796876 2.1752999999999996 Q 5.050553466796876 2.2067999999999994 5.059178466796876 2.216925 Q 5.067803466796875 2.2270499999999998 5.095553466796876 2.2270499999999998 Q 5.097803466796876 2.2270499999999998 5.097803466796876 2.2315499999999995 M 5.474693115234375 2.1902999999999997 Q 5.476943115234375 2.1902999999999997 5.478068115234375 2.19405 Q 5.479193115234375 2.1977999999999995 5.476943115234375 2.1985499999999996 L 5.384693115234375 2.2435499999999995 Q 5.383193115234375 2.2442999999999995 5.380943115234375 2.2442999999999995 Q 5.374943115234376 2.2442999999999995 5.368568115234376 2.2278 Q 5.362193115234375 2.2112999999999996 5.360693115234375 2.1857999999999995 Q 5.334443115234375 2.2127999999999997 5.307443115234376 2.22855 Q 5.280443115234376 2.2442999999999995 5.2474431152343755 2.2442999999999995 Q 5.2009431152343755 2.2442999999999995 5.169443115234376 2.2101749999999996 Q 5.137943115234376 2.1760499999999996 5.137943115234376 2.1145499999999995 Q 5.137943115234376 2.0605499999999997 5.163068115234376 2.0200499999999995 Q 5.188193115234376 1.9795499999999997 5.227568115234376 1.9581749999999998 Q 5.266943115234375 1.9367999999999996 5.308193115234376 1.9367999999999996 Q 5.347943115234376 1.9367999999999996 5.380943115234375 1.9585499999999996 Q 5.395943115234376 1.9510499999999995 5.404193115234376 1.9390499999999997 Q 5.404943115234376 1.9382999999999997 5.406443115234375 1.9382999999999997 Q 5.407943115234375 1.9382999999999997 5.409818115234375 1.9394249999999995 Q 5.4116931152343755 1.9405499999999996 5.4116931152343755 1.9412999999999996 L 5.4116931152343755 2.1557999999999997 Q 5.4116931152343755 2.1797999999999997 5.417318115234376 2.1902999999999997 Q 5.422943115234376 2.2007999999999996 5.4364431152343755 2.2007999999999996 Q 5.446193115234376 2.2007999999999996 5.473193115234376 2.1910499999999997 L 5.474693115234375 2.1902999999999997 M 5.360693115234375 2.1730499999999995 L 5.360693115234375 2.01705 Q 5.360693115234375 1.9892999999999996 5.339693115234375 1.9705499999999996 Q 5.3186931152343755 1.9517999999999995 5.289443115234375 1.9517999999999995 Q 5.2474431152343755 1.9517999999999995 5.221943115234375 1.9907999999999997 Q 5.196443115234375 2.0298 5.196443115234375 2.0912999999999995 Q 5.196443115234375 2.14755 5.217818115234375 2.180925 Q 5.239193115234376 2.2142999999999997 5.276693115234376 2.2142999999999997 Q 5.316443115234375 2.2142999999999997 5.360693115234375 2.1730499999999995 M 5.507310791015626 2.2315499999999995 Q 5.507310791015626 2.2270499999999998 5.508810791015626 2.2270499999999998 Q 5.536560791015626 2.2270499999999998 5.5451857910156255 2.216925 Q 5.553810791015626 2.2067999999999994 5.553810791015626 2.1752999999999996 L 5.554560791015626 1.7897999999999996 Q 5.554560791015626 1.7627999999999997 5.549310791015626 1.7511749999999997 Q 5.544060791015625 1.7395499999999997 5.531310791015626 1.7395499999999997 Q 5.518560791015625 1.7395499999999997 5.4990607910156255 1.7492999999999996 L 5.4975607910156254 1.7492999999999996 Q 5.495310791015625 1.7492999999999996 5.493810791015625 1.7455499999999997 Q 5.492310791015625 1.7417999999999996 5.494560791015625 1.7410499999999995 L 5.595060791015626 1.6930499999999995 L 5.598060791015626 1.6922999999999995 Q 5.601060791015626 1.6922999999999995 5.604060791015626 1.6945499999999996 Q 5.607060791015626 1.6967999999999996 5.607060791015626 1.6997999999999998 L 5.607060791015626 2.1752999999999996 Q 5.607060791015626 2.2067999999999994 5.6156857910156255 2.216925 Q 5.624310791015626 2.2270499999999998 5.651310791015626 2.2270499999999998 Q 5.654310791015626 2.2270499999999998 5.654310791015626 2.2315499999999995 Q 5.654310791015626 2.2360499999999996 5.651310791015626 2.2360499999999996 Q 5.634060791015625 2.2360499999999996 5.623560791015626 2.2352999999999996 L 5.580060791015626 2.2345499999999996 L 5.538060791015626 2.2352999999999996 Q 5.527560791015626 2.2360499999999996 5.508810791015626 2.2360499999999996 Q 5.507310791015626 2.2360499999999996 5.507310791015626 2.2315499999999995 M 5.945682128906251 2.2236749999999996 Q 5.912307128906251 2.2022999999999997 5.896182128906251 2.1685499999999998 Q 5.880057128906251 2.1348 5.880057128906251 2.0972999999999997 Q 5.880057128906251 2.0492999999999997 5.904807128906251 2.0136749999999997 Q 5.929557128906251 1.9780499999999996 5.968557128906251 1.9589249999999996 Q 6.00755712890625 1.9397999999999995 6.048057128906251 1.9397999999999995 Q 6.0818071289062505 1.9397999999999995 6.109557128906251 1.9536749999999996 Q 6.137307128906251 1.9675499999999997 6.137307128906251 1.9885499999999996 Q 6.137307128906251 1.9997999999999996 6.1290571289062505 2.0080499999999994 Q 6.120807128906251 2.0162999999999998 6.106557128906251 2.0162999999999998 Q 6.0818071289062505 2.0162999999999998 6.069057128906251 1.9870499999999995 Q 6.060807128906251 1.9697999999999998 6.051057128906251 1.9622999999999997 Q 6.041307128906251 1.9547999999999996 6.021807128906251 1.9547999999999996 Q 5.98280712890625 1.9547999999999996 5.96068212890625 1.9874249999999996 Q 5.93855712890625 2.0200499999999995 5.93855712890625 2.0740499999999997 Q 5.93855712890625 2.1362999999999994 5.968557128906251 2.1760499999999996 Q 5.998557128906251 2.2157999999999998 6.060807128906251 2.2157999999999998 Q 6.10205712890625 2.2157999999999998 6.135807128906251 2.1925499999999998 L 6.137307128906251 2.1925499999999998 Q 6.139557128906251 2.1925499999999998 6.141432128906251 2.1948 Q 6.143307128906251 2.1970499999999995 6.141057128906251 2.1985499999999996 Q 6.114807128906251 2.2225499999999996 6.087807128906251 2.2337999999999996 Q 6.060807128906251 2.2450499999999995 6.027807128906251 2.2450499999999995 Q 5.979057128906251 2.2450499999999995 5.945682128906251 2.2236749999999996 M 6.1931656494140634 2.2315499999999995 Q 6.1931656494140634 2.2270499999999998 6.1946656494140635 2.2270499999999998 Q 6.222415649414064 2.2270499999999998 6.231040649414063 2.216925 Q 6.239665649414063 2.2067999999999994 6.239665649414063 2.1752999999999996 L 6.2404156494140635 1.7897999999999996 Q 6.2404156494140635 1.7627999999999997 6.235165649414063 1.7511749999999997 Q 6.229915649414063 1.7395499999999997 6.2171656494140635 1.7395499999999997 Q 6.204415649414063 1.7395499999999997 6.184915649414063 1.7492999999999996 L 6.183415649414063 1.7492999999999996 Q 6.181165649414063 1.7492999999999996 6.179665649414063 1.7455499999999997 Q 6.178165649414063 1.7417999999999996 6.180415649414063 1.7410499999999995 L 6.280915649414063 1.6930499999999995 L 6.283915649414063 1.6922999999999995 Q 6.2869156494140634 1.6922999999999995 6.289915649414064 1.6945499999999996 Q 6.292915649414064 1.6967999999999996 6.292915649414064 1.6997999999999998 L 6.292915649414064 2.1752999999999996 Q 6.292915649414064 2.2067999999999994 6.301540649414063 2.216925 Q 6.310165649414063 2.2270499999999998 6.337165649414064 2.2270499999999998 Q 6.340165649414064 2.2270499999999998 6.340165649414064 2.2315499999999995 Q 6.340165649414064 2.2360499999999996 6.337165649414064 2.2360499999999996 Q 6.319915649414063 2.2360499999999996 6.309415649414063 2.2352999999999996 L 6.2659156494140635 2.2345499999999996 L 6.223915649414064 2.2352999999999996 Q 6.213415649414063 2.2360499999999996 6.1946656494140635 2.2360499999999996 Q 6.1931656494140634 2.2360499999999996 6.1931656494140634 2.2315499999999995 M 6.730530395507813 2.1910499999999997 Q 6.733530395507813 2.1910499999999997 6.735030395507813 2.194425 Q 6.736530395507813 2.1977999999999995 6.734280395507813 2.1992999999999996 L 6.641280395507813 2.2435499999999995 Q 6.639780395507813 2.2442999999999995 6.637530395507813 2.2442999999999995 Q 6.630780395507814 2.2442999999999995 6.6240303955078135 2.2266749999999997 Q 6.617280395507813 2.2090499999999995 6.617280395507813 2.1805499999999998 Q 6.561780395507814 2.2427999999999995 6.501780395507813 2.2427999999999995 Q 6.463530395507814 2.2427999999999995 6.441405395507814 2.218425 Q 6.419280395507814 2.19405 6.419280395507814 2.1505499999999995 L 6.419280395507814 2.0372999999999997 Q 6.419280395507814 2.0087999999999995 6.4140303955078135 1.9964249999999997 Q 6.408780395507813 1.9840499999999996 6.396780395507814 1.9840499999999996 Q 6.386280395507813 1.9840499999999996 6.373530395507814 1.9900499999999997 L 6.372030395507814 1.9900499999999997 Q 6.369780395507814 1.9900499999999997 6.368655395507814 1.9862999999999997 Q 6.3675303955078135 1.9825499999999996 6.369780395507814 1.9817999999999996 L 6.458280395507813 1.9405499999999996 L 6.4612803955078135 1.9397999999999995 Q 6.464280395507814 1.9397999999999995 6.467280395507814 1.9420499999999996 Q 6.470280395507813 1.9442999999999997 6.470280395507813 1.9472999999999996 L 6.470280395507813 2.1220499999999998 Q 6.470280395507813 2.2067999999999994 6.533280395507814 2.2067999999999994 Q 6.5542803955078135 2.2067999999999994 6.5767803955078135 2.1962999999999995 Q 6.599280395507813 2.1857999999999995 6.617280395507813 2.1670499999999997 L 6.617280395507813 2.0372999999999997 Q 6.617280395507813 2.0087999999999995 6.612030395507813 1.9964249999999997 Q 6.606780395507814 1.9840499999999996 6.594780395507813 1.9840499999999996 Q 6.585030395507814 1.9840499999999996 6.570780395507813 1.9900499999999997 L 6.569280395507813 1.9900499999999997 Q 6.567030395507813 1.9900499999999997 6.566280395507813 1.9862999999999997 Q 6.565530395507813 1.9825499999999996 6.567780395507813 1.9817999999999996 L 6.656280395507814 1.9405499999999996 L 6.659280395507813 1.9397999999999995 Q 6.662280395507813 1.9397999999999995 6.665280395507813 1.9420499999999996 Q 6.668280395507813 1.9442999999999997 6.668280395507813 1.9472999999999996 L 6.668280395507813 2.1535499999999996 Q 6.668280395507813 2.1790499999999997 6.673905395507814 2.1902999999999997 Q 6.679530395507813 2.2015499999999997 6.693030395507813 2.2015499999999997 Q 6.705030395507813 2.2015499999999997 6.729780395507813 2.1910499999999997 L 6.730530395507813 2.1910499999999997 M 7.033162353515626 1.9525499999999996 Q 7.060912353515626 1.9682999999999997 7.077412353515626 1.9994249999999996 Q 7.093912353515626 2.03055 7.093912353515626 2.07555 Q 7.093912353515626 2.1302999999999996 7.070662353515626 2.1685499999999998 Q 7.047412353515626 2.2067999999999994 7.009912353515626 2.2262999999999997 Q 6.972412353515626 2.2457999999999996 6.930412353515626 2.2457999999999996 Q 6.872662353515626 2.2457999999999996 6.826912353515626 2.2120499999999996 L 6.766162353515626 2.2398 L 6.764662353515626 2.2398 Q 6.761662353515626 2.2398 6.761287353515626 2.2371749999999997 Q 6.760912353515626 2.2345499999999996 6.763162353515626 2.2330499999999995 Q 6.784912353515626 2.21805 6.794662353515626 2.2022999999999997 Q 6.804412353515626 2.1865499999999995 6.804412353515626 2.1588 L 6.804412353515626 1.7905499999999996 Q 6.804412353515626 1.7635499999999995 6.799162353515626 1.7515499999999997 Q 6.793912353515626 1.7395499999999997 6.780412353515626 1.7395499999999997 Q 6.769912353515626 1.7395499999999997 6.748162353515626 1.7492999999999996 L 6.746662353515626 1.7492999999999996 Q 6.744412353515626 1.7492999999999996 6.743287353515626 1.7455499999999997 Q 6.742162353515626 1.7417999999999996 6.744412353515626 1.7410499999999995 L 6.8434123535156255 1.6930499999999995 L 6.847162353515626 1.6922999999999995 Q 6.849412353515626 1.6922999999999995 6.852412353515626 1.6945499999999996 Q 6.855412353515626 1.6967999999999996 6.855412353515626 1.6997999999999998 L 6.855412353515626 1.9967999999999997 Q 6.880912353515626 1.9697999999999998 6.909412353515626 1.9532999999999996 Q 6.9379123535156255 1.9367999999999996 6.972412353515626 1.9367999999999996 Q 7.005412353515626 1.9367999999999996 7.033162353515626 1.9525499999999996 M 7.014037353515626 2.1977999999999995 Q 7.036162353515626 2.1640499999999996 7.036162353515626 2.1025499999999995 Q 7.036162353515626 2.0357999999999996 7.011037353515626 2.0009249999999996 Q 6.985912353515626 1.9660499999999996 6.943912353515626 1.9660499999999996 Q 6.903412353515626 1.9660499999999996 6.855412353515626 2.0095499999999995 L 6.855412353515626 2.1295499999999996 Q 6.855412353515626 2.1647999999999996 6.871162353515626 2.1876749999999996 Q 6.886912353515626 2.2105499999999996 6.909037353515626 2.2210499999999995 Q 6.931162353515626 2.2315499999999995 6.952162353515626 2.2315499999999995 Q 6.991912353515626 2.2315499999999995 7.014037353515626 2.1977999999999995" fill="#ffffff" fill-rule="nonzero"></path></g><g clip-path="url(#SvgjsClipPath1002)"><g clip-path="url(#SvgjsClipPath1000e45eefc2-4e9a-4a12-9f8a-35f96e7d31a0)"><path d=" M 4.240008944388894 -0.2500177119047984 C 4.221504296086843 -0.25003821255875547 4.206133172807721 -0.2642981702996261 4.204726830029687 -0.28274931197297803 L 4.07730738690713 -1.961678479755909 C 4.076594539807717 -1.9710478873100639 4.079633475286482 -1.9803166440589997 4.0857554633982645 -1.9874451228912755 C 4.0918774515100464 -1.994573601723552 4.100580845086728 -1.9989776817369518 4.109950427451317 -1.9996882274541303 C 4.12945480531248 -2.0011623873395568 4.146462632523757 -1.986549135334717 4.147942463244739 -1.9670451869099446 L 4.272687408742679 -0.3233804215814229 L 4.467943447244634 -0.33820528589801757 L 4.343216213651494 -1.9818700512265388 C 4.3417417939702085 -2.0013680197308847 4.356344687132554 -2.018373017468794 4.375841542290884 -2.019862087019962 C 4.395346171293876 -2.0213467903467444 4.4123623932014 -2.0067410677215536 4.413851289989102 -1.9872367583805746 L 4.541270733111659 -0.30828987869284585 C 4.541979779618515 -0.29892496088751264 4.538940889535282 -0.2896617613465824 4.532822154522633 -0.2825367691153926 C 4.526699562244126 -0.27540996344932633 4.517996468246944 -0.27100744664694565 4.508627692567473 -0.27029784289942294 L 4.242736577727909 -0.2501062714287925 C 4.241815558678372 -0.250053135714396 4.240929963438431 -0.2500177119047984 4.240008944388894 -0.2500177119047984 Z" fill="#ffffff" transform="matrix(1,0,0,1,0,0)" fill-rule="nonzero"></path></g><g clip-path="url(#SvgjsClipPath1000e45eefc2-4e9a-4a12-9f8a-35f96e7d31a0)"><path d=" M 4.112589501266337 -1.9288760320685334 C 4.094084852964283 -1.9288965327224896 4.078713729685164 -1.9431564904633611 4.07730738690713 -1.961607632136714 C 4.076594539807717 -1.9709770396908695 4.079633475286482 -1.9802457964398053 4.0857554633982645 -1.987374275272081 C 4.0918774515100464 -1.9945027541043574 4.100580845086728 -1.9989068341177574 4.109950427451317 -1.9996173798349357 L 4.375841542290884 -2.0197912394007678 C 4.395346171293879 -2.02127594272755 4.412362393201403 -2.0066702201023583 4.413851289989102 -1.98716591076138 C 4.414564137088519 -1.9777965032072244 4.411525201609754 -1.968527746458288 4.405403213497971 -1.9613992676260121 C 4.399281225386189 -1.9542707887937363 4.390577831809508 -1.9498667087803363 4.381208249444919 -1.9491561630631573 L 4.115299422700552 -1.9289645915925275 C 4.114396115555812 -1.9289823034973264 4.113492808411074 -1.9288760320685334 4.112589501266337 -1.9288760320685334 Z" fill="#ffffff" transform="matrix(1,0,0,1,0,0)" fill-rule="nonzero"></path></g><g clip-path="url(#SvgjsClipPath1000e45eefc2-4e9a-4a12-9f8a-35f96e7d31a0)"><path d=" M 4.140078377514071 -1.7568048769482039 C 4.121694075283028 -1.7568310482271952 4.1063851434488035 -1.7709168041007963 4.104831686964459 -1.7892353746348044 C 4.104037078853851 -1.7985976289438868 4.106994531999118 -1.8078920391067752 4.113053320333713 -1.8150735634375827 C 4.119112108668306 -1.82225508776839 4.127775825939516 -1.8267353324522204 4.13713820131747 -1.8275285128098062 L 4.375540439909301 -1.8477023723756387 C 4.395029858450595 -1.849346729805295 4.41216394941532 -1.8348846372927237 4.413815866179501 -1.8153958580226297 C 4.415460518654394 -1.7959127925037888 4.401008734639475 -1.778781522478422 4.381527063731293 -1.7771204317524256 L 4.143124825139463 -1.7569288602817954 C 4.142097534661134 -1.7568403007578013 4.141087956087603 -1.7568048769482039 4.140078377514071 -1.7568048769482039 Z" fill="#ffffff" transform="matrix(1,0,0,1,0,0)" fill-rule="nonzero"></path></g><g clip-path="url(#SvgjsClipPath1000e45eefc2-4e9a-4a12-9f8a-35f96e7d31a0)"><path d=" M 4.233012741993369 -0.4188121646373506 C 4.214622191949707 -0.4188391223643404 4.199310839549156 -0.43293479954916947 4.197766051443759 -0.45126037422874954 C 4.196976545514346 -0.460622541250018 4.199938649927036 -0.4699148669796045 4.206000681674433 -0.47709297690076613 C 4.212062713421827 -0.48427108682192754 4.220728056818324 -0.48874693353927734 4.230090277701568 -0.48953580049895384 L 4.469413535342934 -0.5097096600647852 C 4.478775702364204 -0.5104991659941995 4.488068028093791 -0.5075370615815069 4.49524613801495 -0.5014750298341122 C 4.502424247936113 -0.49541299808671746 4.506900094653462 -0.4867476546902203 4.507688961613137 -0.47738543380697784 C 4.508478467542552 -0.4680232667857094 4.505516363129859 -0.45873094105612267 4.499454331382465 -0.45155283113496103 C 4.4933922996350715 -0.4443747212137994 4.484726956238574 -0.4398988744964496 4.475364735355329 -0.43911000753677354 L 4.2361123253331545 -0.4189361479709417 C 4.2350318991404325 -0.4188475884469478 4.234022320566901 -0.4188121646373506 4.233012741993369 -0.4188121646373506 Z" fill="#ffffff" transform="matrix(1,0,0,1,0,0)" fill-rule="nonzero"></path></g><g clip-path="url(#SvgjsClipPath1000e45eefc2-4e9a-4a12-9f8a-35f96e7d31a0)"><path d=" M 4.085685117876961 -0.25864340954181353 L 3.68507725513773 -0.25864340954181353 C 3.665513225316067 -0.25864340954181353 3.6496534455401326 -0.2745031893177483 3.6496534455401326 -0.29406721913941114 L 3.6496534455401326 -1.9778317369324125 C 3.6496534455401326 -1.9973957667540756 3.665513225316067 -2.0132555465300097 3.68507725513773 -2.0132555465300097 L 4.085685117876961 -2.0132555465300097 C 4.105249147698624 -2.0132555465300097 4.121108927474558 -1.9973957667540756 4.121108927474558 -1.9778317369324125 L 4.121108927474558 -0.29406721913941114 C 4.121108927474558 -0.2745031893177483 4.105249147698624 -0.25864340954181353 4.085685117876961 -0.25864340954181353 Z M 3.720501064735327 -0.3294910287370083 L 4.050261308279364 -0.3294910287370083 L 4.050261308279364 -1.9424079273348154 L 3.720501064735327 -1.9424079273348154 Z" fill="#ffffff" transform="matrix(1,0,0,1,0,0)" fill-rule="nonzero"></path></g><g clip-path="url(#SvgjsClipPath1000e45eefc2-4e9a-4a12-9f8a-35f96e7d31a0)"><path d=" M 4.085685117876961 -1.7611265817191104 L 3.68507725513773 -1.7611265817191104 C 3.665513225316067 -1.7611265817191104 3.6496534455401326 -1.7769863614950454 3.6496534455401326 -1.7965503913167078 C 3.6496534455401326 -1.8161144211383706 3.665513225316067 -1.8319742009143054 3.68507725513773 -1.8319742009143054 L 4.085685117876961 -1.8319742009143054 C 4.105249147698624 -1.8319742009143054 4.121108927474558 -1.8161144211383706 4.121108927474558 -1.7965503913167078 C 4.121108927474558 -1.7769863614950454 4.105249147698624 -1.7611265817191104 4.085685117876961 -1.7611265817191104 Z" fill="#ffffff" transform="matrix(1,0,0,1,0,0)" fill-rule="nonzero"></path></g><g clip-path="url(#SvgjsClipPath1000e45eefc2-4e9a-4a12-9f8a-35f96e7d31a0)"><path d=" M 4.085685117876961 -1.545678971746523 L 3.68507725513773 -1.545678971746523 C 3.665513225316067 -1.545678971746523 3.6496534455401326 -1.5615387515224577 3.6496534455401326 -1.5811027813441205 C 3.6496534455401326 -1.6006668111657831 3.665513225316067 -1.6165265909417181 3.68507725513773 -1.6165265909417181 L 4.085685117876961 -1.6165265909417181 C 4.105249147698624 -1.6165265909417181 4.121108927474558 -1.6006668111657831 4.121108927474558 -1.5811027813441205 C 4.121108927474558 -1.5615387515224577 4.105249147698624 -1.545678971746523 4.085685117876961 -1.545678971746523 Z" fill="#ffffff" transform="matrix(1,0,0,1,0,0)" fill-rule="nonzero"></path></g><g clip-path="url(#SvgjsClipPath1000e45eefc2-4e9a-4a12-9f8a-35f96e7d31a0)"><path d=" M 3.148317980210135 -0.25864340954181353 L 2.614977102908707 -0.25864340954181353 C 2.595413073087044 -0.25864340954181353 2.57955329331111 -0.2745031893177483 2.57955329331111 -0.29406721913941114 L 2.57955329331111 -1.9778317369324125 C 2.57955329331111 -1.9973957667540756 2.595413073087044 -2.0132555465300097 2.614977102908707 -2.0132555465300097 L 3.148317980210135 -2.0132555465300097 C 3.167882010031795 -2.0132555465300097 3.183741789807732 -1.9973957667540756 3.183741789807732 -1.9778317369324125 L 3.183741789807732 -0.29406721913941114 C 3.183741789807732 -0.2745031893177492 3.167882010031801 -0.2586434095418144 3.1483179802101375 -0.25864340954181353 Z M 2.650400912506307 -0.3294910287370083 L 3.1128941706125377 -0.3294910287370083 L 3.1128941706125377 -1.9424079273348154 L 2.650400912506304 -1.9424079273348154 Z" fill="#ffffff" transform="matrix(1,0,0,1,0,0)" fill-rule="nonzero"></path></g><g clip-path="url(#SvgjsClipPath1000e45eefc2-4e9a-4a12-9f8a-35f96e7d31a0)"><path d=" M 3.148317980210135 -1.7611265817191104 L 2.614977102908707 -1.7611265817191104 C 2.595413073087044 -1.7611265817191104 2.57955329331111 -1.7769863614950454 2.57955329331111 -1.7965503913167078 C 2.57955329331111 -1.8161144211383706 2.595413073087044 -1.8319742009143054 2.614977102908707 -1.8319742009143054 L 3.148317980210135 -1.8319742009143054 C 3.167882010031795 -1.8319742009143054 3.183741789807732 -1.8161144211383706 3.183741789807732 -1.7965503913167078 C 3.183741789807732 -1.7769863614950459 3.167882010031801 -1.7611265817191115 3.1483179802101375 -1.7611265817191104 Z" fill="#ffffff" transform="matrix(1,0,0,1,0,0)" fill-rule="nonzero"></path></g><g clip-path="url(#SvgjsClipPath1000e45eefc2-4e9a-4a12-9f8a-35f96e7d31a0)"><path d=" M 3.148317980210135 -0.4399956027767138 L 2.614977102908707 -0.4399956027767138 C 2.595413073087044 -0.4399956027767138 2.57955329331111 -0.45585538255264835 2.57955329331111 -0.47541941237431096 C 2.57955329331111 -0.494983442195974 2.595413073087044 -0.5108432219719086 2.614977102908707 -0.5108432219719086 L 3.148317980210135 -0.5108432219719086 C 3.167882010031795 -0.5108432219719086 3.183741789807732 -0.494983442195974 3.183741789807732 -0.47541941237431096 C 3.183741789807732 -0.45585538255264946 3.167882010031801 -0.4399956027767149 3.1483179802101375 -0.4399956027767138 Z" fill="#ffffff" transform="matrix(1,0,0,1,0,0)" fill-rule="nonzero"></path></g><g clip-path="url(#SvgjsClipPath1000e45eefc2-4e9a-4a12-9f8a-35f96e7d31a0)"><path d=" M 2.779042477059981 -1.627171445725796 C 2.759540530902575 -1.6271712482675966 2.7437064262190956 -1.642934099479999 2.7436186674623837 -1.662435848180205 C 2.7435763009450334 -1.6718339111918774 2.747270293487089 -1.680863621265316 2.7538874990426847 -1.6875372989566761 C 2.7605047045982776 -1.6942109766480358 2.7695026981202364 -1.6979815677807255 2.778900781821588 -1.6980190649209908 L 2.9841109108204704 -1.6988515244465343 L 2.9842526060588637 -1.6988515244465343 C 3.003761433772935 -1.698851680517778 3.019598380346224 -1.6830780817307804 3.019676415656461 -1.6635694100873275 C 3.019754842424629 -1.6440122033735167 3.003969179853339 -1.6280917561393877 2.984412013202051 -1.62800390525134 L 2.7792018842031707 -1.627171445725796 Z" fill="#ffffff" transform="matrix(1,0,0,1,0,0)" fill-rule="nonzero"></path></g><g clip-path="url(#SvgjsClipPath1000e45eefc2-4e9a-4a12-9f8a-35f96e7d31a0)"><path d=" M 3.68507725513773 -0.25864340954181353 L 3.1517363778363023 -0.25864340954181353 C 3.1321723480146417 -0.25864340954181353 3.1163125682387047 -0.2745031893177483 3.1163125682387047 -0.29406721913941114 L 3.1163125682387047 -2.2644989161009703 C 3.1163125682387047 -2.2840629459226336 3.1321723480146417 -2.2999227256985684 3.1517363778363023 -2.2999227256985684 L 3.68507725513773 -2.2999227256985684 C 3.704641284959393 -2.2999227256985684 3.720501064735327 -2.2840629459226336 3.720501064735327 -2.2644989161009703 L 3.720501064735327 -0.29406721913941114 C 3.720501064735327 -0.2745031893177483 3.704641284959393 -0.25864340954181353 3.68507725513773 -0.25864340954181353 Z M 3.187160187433902 -0.3294910287370083 L 3.6496534455401326 -0.3294910287370083 L 3.6496534455401326 -2.229075106503373 L 3.187160187433902 -2.229075106503373 Z" fill="#ffffff" transform="matrix(1,0,0,1,0,0)" fill-rule="nonzero"></path></g><g clip-path="url(#SvgjsClipPath1000e45eefc2-4e9a-4a12-9f8a-35f96e7d31a0)"><path d=" M 3.5253690095669628 -1.9501303178270923 L 3.3114091995974735 -1.9501303178270923 C 3.2918451697758107 -1.9501303178270923 3.2759853899998763 -1.9659900976030271 3.2759853899998763 -1.9855541274246895 C 3.2759853899998763 -2.0051181572463523 3.2918451697758107 -2.020977937022287 3.3114091995974735 -2.020977937022287 L 3.5253690095669628 -2.020977937022287 C 3.5449330393886256 -2.020977937022287 3.5607928191645595 -2.0051181572463523 3.5607928191645595 -1.9855541274246895 C 3.5607928191645595 -1.9659900976030271 3.5449330393886256 -1.9501303178270923 3.5253690095669628 -1.9501303178270923 Z" fill="#ffffff" transform="matrix(1,0,0,1,0,0)" fill-rule="nonzero"></path></g><g clip-path="url(#SvgjsClipPath1000e45eefc2-4e9a-4a12-9f8a-35f96e7d31a0)"><path d=" M 3.5253690095669628 -1.7009592411175913 L 3.3114091995974735 -1.7009592411175913 C 3.2918451697758107 -1.7009592411175913 3.2759853899998763 -1.7168190208935263 3.2759853899998763 -1.736383050715189 C 3.2759853899998763 -1.7559470805368516 3.2918451697758107 -1.7718068603127866 3.3114091995974735 -1.7718068603127866 L 3.5253690095669628 -1.7718068603127866 C 3.5449330393886256 -1.7718068603127866 3.5607928191645595 -1.7559470805368516 3.5607928191645595 -1.736383050715189 C 3.5607928191645595 -1.7168190208935263 3.5449330393886256 -1.7009592411175913 3.5253690095669628 -1.7009592411175913 Z" fill="#ffffff" transform="matrix(1,0,0,1,0,0)" fill-rule="nonzero"></path></g><g clip-path="url(#SvgjsClipPath1000e45eefc2-4e9a-4a12-9f8a-35f96e7d31a0)"><path d=" M 3.468124133257245 -1.8255447794723418 L 3.3686894997167873 -1.8255447794723418 C 3.3491254698951245 -1.8255447794723418 3.33326569011919 -1.841404559248276 3.33326569011919 -1.860968589069939 C 3.33326569011919 -1.8805326188916012 3.3491254698951245 -1.8963923986675362 3.3686894997167873 -1.8963923986675362 L 3.468124133257245 -1.8963923986675362 C 3.4876881630789076 -1.8963923986675362 3.503547942854842 -1.8805326188916012 3.503547942854842 -1.860968589069939 C 3.503547942854842 -1.841404559248276 3.4876881630789076 -1.8255447794723418 3.468124133257245 -1.8255447794723418 Z" fill="#ffffff" transform="matrix(1,0,0,1,0,0)" fill-rule="nonzero"></path></g><g clip-path="url(#SvgjsClipPath1000e45eefc2-4e9a-4a12-9f8a-35f96e7d31a0)"><path d=" M 3.1550130802240792 -0.43891517658398693 C 3.1355042525100076 -0.4389150205127432 3.1196673059367184 -0.45468861929974125 3.1195892706264816 -0.4741972909431942 C 3.119510843858314 -0.4937544976570043 3.1352965064296034 -0.5096749448911335 3.154853673080889 -0.5097627957791817 L 3.664106359855951 -0.5119413600694342 L 3.664265766999141 -0.5119413600694342 C 3.683774594713212 -0.5119415161406777 3.6996115412865045 -0.4961679173536797 3.699689576596738 -0.4766592457102268 C 3.699731943114089 -0.46726118269855443 3.696037950572033 -0.458231472625116 3.689420745016437 -0.4515577949337559 C 3.682803539460842 -0.44488411724239585 3.6738055459388828 -0.4411135261097061 3.6644074622375316 -0.4410760289694404 L 3.155154775462472 -0.4388974646791881 Z" fill="#ffffff" transform="matrix(1,0,0,1,0,0)" fill-rule="nonzero"></path></g></g></g><defs><clipPath id="SvgjsClipPath1002"><path d=" M 2.57955329331111 -2.2999227256985684 h 1.9618237112293437 v 2.0499227256985684 h -1.9618237112293437 Z"></path></clipPath><clipPath id="SvgjsClipPath1000e45eefc2-4e9a-4a12-9f8a-35f96e7d31a0"><path d=" M 2.57955329331111 -2.2999227256985684 L 4.541377004540454 -2.2999227256985684 L 4.541377004540454 -0.25 L 2.57955329331111 -0.25 Z"></path></clipPath></defs></svg>